<?xml version="1.0" standalone="no"?>
<!DOCTYPE svg PUBLIC "-//W3C//DTD SVG 20010904//EN"
 "http://www.w3.org/TR/2001/REC-SVG-20010904/DTD/svg10.dtd">
<svg version="1.0" xmlns="http://www.w3.org/2000/svg"
 width="96.000000pt" height="96.000000pt" viewBox="0 0 96.000000 96.000000"
 preserveAspectRatio="xMidYMid meet">
<metadata>
Created by potrace 1.14, written by Peter Selinger 2001-2017
</metadata>
<g transform="translate(0.000000,96.000000) scale(0.100000,-0.100000)"
fill="#000000" stroke="none">
<path d="M19 898 c0 -29 -1 -84 -1 -123 l-1 -70 31 -3 c32 -3 32 -4 33 -60 0
-31 0 -87 -1 -124 l-1 -68 30 0 c17 0 31 -3 32 -7 1 -5 2 -58 2 -120 1 -61 5
-114 8 -117 3 -3 16 -7 30 -9 23 -4 24 -6 24 -96 l0 -91 128 0 127 0 0 30 c0
29 1 29 63 32 56 3 62 5 63 26 2 37 3 39 22 39 37 0 42 4 42 34 0 23 4 30 18
28 35 -3 42 2 42 31 0 27 3 30 30 30 23 0 30 5 31 20 1 11 2 25 3 32 0 7 15
12 31 13 27 0 30 3 30 31 -1 29 2 32 30 30 l30 -1 3 63 c3 61 3 62 32 62 l30
0 0 124 c0 90 -3 125 -12 128 -7 2 -50 3 -95 3 -52 -1 -82 3 -82 10 6 52 8 52
-126 51 l-125 -1 0 33 0 32 -125 0 -125 0 0 30 0 30 -125 0 -125 0 -1 -52z"/>
</g>
</svg>
